<svg width="79" height="79" viewBox="0 0 79 79" fill="none" xmlns="http://www.w3.org/2000/svg">
<path d="M72.2734 69.8095H68.9883V32.7858C68.9883 30.749 68.0684 28.8436 66.4587 27.5952L62.418 24.4415L62.3523 16.3929C62.3523 14.586 60.8739 13.1405 59.0671 13.1405H47.8647L43.4626 9.72398C41.0973 7.85145 37.7464 7.85145 35.3811 9.72398L12.385 27.5952C10.7753 28.8436 9.85547 30.749 9.85547 32.7529L9.69121 69.8095H6.57031C5.2234 69.8095 4.10645 70.9264 4.10645 72.2734C4.10645 73.6203 5.2234 74.7372 6.57031 74.7372H72.2734C73.6204 74.7372 74.7373 73.6203 74.7373 72.2734C74.7373 70.9264 73.6204 69.8095 72.2734 69.8095ZM21.3535 41.8857V36.9579C21.3535 35.1511 22.8318 33.6728 24.6387 33.6728H31.209C33.0158 33.6728 34.4941 35.1511 34.4941 36.9579V41.8857C34.4941 43.6925 33.0158 45.1708 31.209 45.1708H24.6387C22.8318 45.1708 21.3535 43.6925 21.3535 41.8857ZM47.6348 69.8095H31.209V60.7753C31.209 58.0486 33.41 55.8476 36.1367 55.8476H42.707C45.4337 55.8476 47.6348 58.0486 47.6348 60.7753V69.8095ZM57.4902 41.8857C57.4902 43.6925 56.0119 45.1708 54.2051 45.1708H47.6348C45.8279 45.1708 44.3496 43.6925 44.3496 41.8857V36.9579C44.3496 35.1511 45.8279 33.6728 47.6348 33.6728H54.2051C56.0119 33.6728 57.4902 35.1511 57.4902 36.9579V41.8857Z" fill="#FF6300"/>
</svg>
